<svg width="609" height="610" viewBox="0 0 609 610" fill="none" xmlns="http://www.w3.org/2000/svg">
<g clip-path="url(#clip0_65_21818)">
<path d="M168.611 360.132C161.519 360.132 154.426 360.455 147.011 361.099C139.596 361.744 132.503 362.067 126.056 362.067C120.897 362.067 116.061 361.744 112.193 361.099C108.324 360.455 104.778 358.842 102.199 356.908C99.297 354.651 97.3626 351.749 95.7507 348.203C94.4611 344.656 93.4939 339.82 93.4939 333.694C93.4939 327.246 94.4611 319.508 96.0731 311.126C97.685 302.421 99.6194 293.393 102.199 284.043C91.882 284.043 82.5326 285.011 74.1504 287.267C65.4457 289.202 57.3859 291.781 49.9709 294.038C42.5559 296.617 35.1408 298.874 28.3706 300.809C21.6003 302.743 14.8301 304.033 8.38221 304.033C5.48068 304.033 3.22393 303.066 1.93436 300.809C0.644786 297.907 0 295.328 0 292.426C0 288.235 1.28957 283.076 3.86871 277.273C6.44786 271.469 9.99418 265.344 14.1853 258.895C17.7316 249.868 20.9555 241.485 23.5347 233.747C26.4362 226.009 29.0154 218.272 31.2721 211.179C33.5289 203.763 35.7856 196.348 37.72 189.255C39.6543 181.839 41.5887 174.101 43.523 165.719C45.4574 157.336 47.3917 148.309 49.3261 138.959C51.2605 129.286 53.5172 118.647 55.774 106.395C56.7411 103.816 58.6755 101.559 61.8994 99.6247C64.801 97.6902 68.6697 96.4006 72.8608 95.111C77.0519 93.8213 81.8878 92.8541 86.7237 92.5317C91.882 91.8869 96.7178 91.5645 101.554 91.5645C105.745 91.5645 109.614 91.8869 113.16 92.2093C116.706 92.5317 119.93 93.1765 122.832 93.8213C125.411 94.4661 127.668 95.4334 129.28 96.4006C130.891 97.3678 131.859 98.6575 131.859 99.6247C129.924 112.199 127.345 124.773 124.121 137.347C120.897 149.921 116.706 162.495 112.193 175.069C107.679 187.643 102.521 200.539 97.0402 213.758C91.5596 226.977 85.7565 240.196 79.631 253.737C85.7565 254.059 91.2372 254.382 95.4283 254.382C99.6194 254.382 103.488 254.382 107.034 254.382H110.258C113.482 243.742 116.706 233.425 120.253 223.108C123.476 213.113 126.7 203.441 129.28 194.736C130.247 190.544 132.181 186.675 134.76 183.774C137.339 180.872 140.563 178.293 144.11 176.358C147.656 174.424 151.202 173.134 154.749 172.167C158.295 171.2 161.841 170.877 164.743 170.877C172.48 170.877 177.638 172.167 180.54 174.424C183.119 177.003 184.731 180.227 184.731 184.419C184.731 186.998 184.086 190.544 183.119 195.058C182.152 199.572 180.54 204.408 178.928 210.211C176.994 215.692 175.059 221.818 172.803 228.589C170.546 235.037 168.289 241.808 166.032 248.901C174.415 247.611 181.507 246.321 188.277 245.032C194.725 243.742 200.528 243.097 205.042 243.097C207.299 243.097 208.588 244.064 209.555 245.676C210.523 247.611 210.845 249.868 210.845 252.77C210.845 259.863 210.2 265.666 208.911 269.857C207.943 274.049 206.331 277.273 204.719 279.852C203.107 282.109 201.496 283.721 199.884 284.688C198.272 285.333 196.982 285.655 196.337 285.655C190.212 285.655 183.442 285.655 176.671 285.333C169.901 285.011 162.808 284.688 155.393 284.366C154.104 289.524 152.814 294.683 151.847 299.841C150.88 305 150.235 309.514 149.913 314.027V318.864C149.913 321.765 151.202 325.312 153.459 328.858C155.716 332.727 158.295 336.274 161.196 340.143C164.098 343.689 166.677 347.236 168.934 350.46C171.191 353.684 172.48 355.941 172.48 357.875C172.48 358.842 172.158 359.165 171.835 359.81C171.513 359.81 170.546 360.132 168.611 360.132Z" fill="#34DABD"/>
<path d="M567.089 385.28C559.996 385.28 552.904 385.603 545.489 386.247C538.074 386.892 530.981 387.215 524.533 387.215C519.375 387.215 514.539 386.892 510.67 386.247C506.802 385.603 503.255 383.991 500.676 382.056C497.775 379.799 495.84 376.897 494.228 373.351C492.939 369.804 491.971 364.968 491.971 358.843C491.971 352.394 492.939 344.656 494.551 336.274C496.163 327.569 498.097 318.541 500.676 309.191C490.36 309.191 481.01 310.159 472.628 312.415C463.923 314.35 455.863 316.929 448.448 319.186C441.033 321.765 433.618 324.022 426.848 325.957C420.078 327.891 413.308 329.181 406.86 329.181C403.958 329.181 401.701 328.214 400.412 325.957C399.122 323.7 398.478 321.121 398.478 318.219C398.478 314.027 399.767 308.869 402.346 303.066C404.925 297.262 408.472 291.136 412.663 284.688C416.209 275.661 419.433 267.278 422.012 259.54C424.914 251.802 427.493 244.064 429.75 236.971C432.006 229.556 434.263 222.141 436.198 215.048C438.132 207.955 440.066 199.894 442.001 191.512C443.935 183.129 445.869 174.101 447.804 164.752C449.738 155.079 451.995 144.44 454.251 132.188C455.219 129.609 457.153 127.352 460.377 125.418C463.279 123.483 467.147 122.193 471.338 120.904C475.529 119.614 480.365 118.647 485.201 118.325C490.359 117.68 495.195 117.357 500.031 117.357C504.222 117.357 508.091 117.68 511.637 118.002C515.184 118.325 518.408 118.969 521.309 119.614C523.888 120.259 526.145 121.226 527.757 122.193C529.369 123.161 530.336 124.45 530.336 125.418C528.402 137.992 525.823 150.566 522.599 163.14C519.375 175.714 515.184 188.288 510.67 200.862C506.157 213.436 500.998 226.332 495.518 239.551C490.359 251.802 485.201 264.054 478.109 279.53C484.234 279.852 489.715 280.174 493.906 280.174C498.097 280.174 501.966 280.174 505.512 280.174H508.736C511.96 269.535 515.184 259.218 518.73 248.901C521.954 238.906 525.178 229.234 527.757 220.529C528.724 216.337 530.659 212.468 533.238 209.567C535.817 206.665 539.041 204.086 542.587 202.151C546.133 200.217 549.68 198.927 553.226 197.96C556.772 196.993 560.319 196.67 563.22 196.67C570.958 196.67 576.116 197.96 579.018 200.217C581.597 202.796 583.209 206.02 583.209 210.211C583.209 212.791 582.564 216.337 581.597 220.851C580.629 225.365 579.018 230.201 577.406 236.004C575.471 241.485 573.537 247.611 571.28 254.382C569.023 260.83 566.767 267.6 564.51 274.693C572.892 273.404 579.985 272.114 586.755 270.825C593.203 269.535 599.006 268.89 603.519 268.89C605.776 268.89 607.066 269.857 608.033 271.469C609 273.404 609.322 275.661 609.322 278.562C609.322 285.655 608.678 291.459 607.388 295.65C606.098 299.841 604.809 303.388 603.197 305.645C601.585 307.902 599.973 309.514 598.361 310.481C596.749 311.448 595.46 311.448 594.815 311.448C588.689 311.448 581.919 311.448 575.149 311.126C568.379 310.803 561.286 310.481 553.871 310.159C552.581 315.317 551.292 320.476 550.325 325.634C549.357 330.793 548.713 335.307 548.39 339.82V344.656C548.39 347.558 549.68 351.105 551.937 354.651C554.193 358.52 556.772 362.067 559.674 365.936C562.576 369.482 565.155 373.029 567.411 376.253C569.668 379.477 570.958 381.734 570.958 383.668C570.958 384.635 570.635 384.958 570.313 385.603C569.668 385.28 568.701 385.28 567.089 385.28Z" fill="#34DABD"/>
<path d="M213.424 358.843C213.424 358.843 131.214 364.968 111.226 416.232C96.3955 453.954 259.849 444.604 259.849 444.604C259.849 444.604 182.474 513.277 163.453 548.097C163.453 548.097 159.907 568.409 168.611 557.447C176.994 546.485 194.081 522.949 194.081 522.949C170.546 566.475 176.027 598.716 180.54 585.174C185.054 571.633 205.364 532.622 205.364 532.622L205.687 560.349C205.687 560.349 205.042 604.519 212.135 557.447C219.227 510.375 288.542 458.79 301.115 448.795C313.366 438.8 324.65 423.969 310.142 429.773C295.634 435.576 167.322 425.581 167.322 425.581C167.322 425.581 229.866 428.161 265.329 420.1C265.329 419.456 227.287 414.619 213.424 358.843Z" fill="#35445A"/>
<path d="M143.142 578.404C149.268 585.174 159.584 585.819 166.032 579.693C172.802 573.568 173.125 562.928 167.322 556.158C161.196 549.387 150.88 548.742 144.432 554.868C137.662 560.994 137.339 571.311 143.142 578.404Z" fill="#35445A"/>
<path d="M163.131 604.197C169.256 611.29 179.895 611.935 186.988 605.486C193.758 599.038 194.403 588.076 188.278 580.983C182.152 573.89 171.513 573.245 164.42 579.694C157.328 586.142 156.683 597.104 163.131 604.197Z" fill="#35445A"/>
<path d="M204.397 587.754C209.878 593.88 218.905 594.524 225.03 588.721C231.156 583.24 231.478 573.568 225.997 567.442C220.517 561.316 211.49 560.671 205.364 566.475C199.561 571.956 198.916 581.628 204.397 587.754Z" fill="#35445A"/>
<path d="M293.055 76.4112C313.043 83.1818 334.644 71.8974 341.092 51.2632C347.539 30.6289 336.578 8.70502 316.59 1.93441C296.601 -4.83621 275.001 6.44815 268.553 27.0824C261.783 47.7167 272.744 69.6405 293.055 76.4112ZM296.924 45.4598C298.858 39.6564 304.661 36.4323 310.464 38.3668C315.945 40.3012 319.169 46.427 317.234 52.2304C315.3 58.0338 309.497 61.2579 303.694 59.3234C298.213 57.7114 294.989 51.2632 296.924 45.4598Z" fill="#35445A"/>
<path d="M381.713 106.395C401.701 113.166 423.302 101.882 429.75 81.2473C436.198 60.613 425.236 38.6892 405.248 31.9185C385.259 25.1479 363.659 36.4323 357.211 57.0665C350.763 77.3784 361.725 99.6247 381.713 106.395ZM378.812 73.187C380.746 67.3837 386.549 64.1596 392.352 66.094C397.833 68.0285 401.057 74.1543 399.122 79.9577C397.188 85.761 391.385 88.9851 385.582 87.0507C380.101 85.1162 376.877 78.9904 378.812 73.187Z" fill="#35445A"/>
<path d="M411.051 105.106C402.024 109.942 391.062 110.909 380.746 107.685C359.79 100.592 348.507 77.7008 355.277 56.0993C357.211 49.9735 360.435 44.8149 364.304 40.3012L363.981 39.6564C358.823 29.3393 345.605 31.2737 343.993 31.5961C345.283 38.0443 344.96 45.1373 342.704 51.5856C335.933 73.187 313.366 84.7938 292.41 78.0232C279.837 73.8319 270.81 63.8371 266.941 51.908C233.735 52.5528 208.588 63.1923 202.463 82.8593C194.08 108.975 222.129 142.828 267.586 165.719C256.302 172.812 246.63 182.806 238.893 195.38C231.156 207.954 225.03 222.785 220.839 239.873C216.648 256.961 214.391 275.338 214.391 295.005C214.391 309.191 215.681 323.377 217.938 337.563C220.194 351.427 224.063 364.001 229.221 375.285C234.38 386.247 240.827 395.275 248.887 402.368C256.947 409.138 266.619 412.685 277.903 412.685C285.64 412.685 293.055 410.75 299.825 407.204C306.596 403.335 313.043 398.499 318.846 392.051C324.65 385.602 329.808 377.865 334.321 369.16C338.835 360.454 342.704 351.105 345.928 341.11C349.151 331.115 351.408 320.798 353.02 309.836C354.632 299.197 355.599 288.557 355.599 277.917C355.599 267.278 354.632 256.316 352.698 244.709C350.763 233.102 348.184 222.141 344.316 211.823L345.928 208.922L348.507 214.08C366.238 264.376 353.987 340.787 353.987 340.787L334.644 440.412C334.644 440.412 325.939 467.172 323.36 473.62C320.781 480.069 334.321 475.877 334.321 475.877L341.736 447.183C341.736 447.183 351.408 465.883 357.211 475.877C363.014 485.872 366.883 475.877 366.883 475.877L352.698 447.183C352.698 447.183 368.495 456.21 379.134 458.467C390.095 460.724 388.806 455.565 388.806 455.565L350.119 436.221C350.119 436.221 375.91 315.639 402.669 245.999C414.92 214.08 399.122 198.605 381.391 191.512C409.439 189.255 430.394 178.615 435.875 161.205C440.711 143.795 431.039 123.483 411.051 105.106ZM316.267 297.262C314.333 308.546 312.076 318.864 308.852 328.536C305.628 337.886 302.082 345.624 298.213 351.749C294.022 357.875 289.831 361.099 285.64 361.099C280.804 361.099 276.291 359.487 272.744 356.586C269.198 353.684 266.296 349.815 264.04 344.656C261.783 339.82 260.171 334.017 259.204 327.246C258.237 320.476 257.592 313.705 257.592 305.967C257.592 295.005 258.559 283.721 260.816 271.792C262.75 259.863 265.652 249.223 269.198 239.551C272.744 229.878 276.935 221.818 281.771 215.692C286.607 209.567 291.443 206.342 296.601 206.342C300.47 206.342 304.016 207.954 306.918 210.856C309.819 213.758 312.076 217.949 313.688 223.108C315.623 228.266 316.912 234.392 317.879 241.485C318.846 248.578 319.169 256.316 319.169 264.376C318.846 275.016 317.879 285.978 316.267 297.262ZM381.391 146.374C279.192 199.894 250.177 102.849 250.177 102.849L251.789 97.3678C251.789 97.3678 280.159 194.413 381.713 140.571L381.391 146.374Z" fill="#35445A"/>
</g>
<defs>
<clipPath id="clip0_65_21818">
<rect width="609" height="610" fill="white"/>
</clipPath>
</defs>
</svg>
